<svg width="212" height="212" viewBox="0 0 212 212" fill="none" xmlns="http://www.w3.org/2000/svg">
<rect width="212" height="212" rx="106" fill="#8247E5"/>
<path d="M136.487 84.789C135.325 84.1395 134.016 83.7985 132.684 83.7985C131.353 83.7985 130.044 84.1395 128.882 84.789L111.434 94.909L99.579 101.509L82.132 111.629C80.9697 112.278 79.6607 112.619 78.3295 112.619C76.9983 112.619 75.6893 112.278 74.527 111.629L60.658 103.709C59.5296 103.062 58.5871 102.135 57.9214 101.017C57.2558 99.8997 56.8895 98.6294 56.858 97.329V81.709C56.8424 80.3987 57.1889 79.1096 57.8595 77.9838C58.53 76.8581 59.4985 75.9393 60.658 75.329L74.303 67.629C75.4653 66.9801 76.7743 66.6394 78.1055 66.6394C79.4367 66.6394 80.7457 66.9801 81.908 67.629L95.553 75.329C96.6814 75.9761 97.6239 76.9032 98.2896 78.0207C98.9552 79.1383 99.3215 80.4086 99.353 81.709V91.829L111.208 85.009V74.889C111.224 73.5787 110.877 72.2896 110.206 71.1638C109.536 70.0381 108.568 69.1193 107.408 68.509L82.132 53.99C80.9697 53.3411 79.6607 53.0004 78.3295 53.0004C76.9983 53.0004 75.6893 53.3411 74.527 53.99L48.8 68.51C47.6406 69.1203 46.6723 70.0388 46.0017 71.1644C45.3312 72.29 44.9846 73.5789 45 74.889V104.149C44.9844 105.459 45.3309 106.748 46.0015 107.874C46.672 109 47.6405 109.919 48.8 110.529L74.524 125.049C75.6863 125.698 76.9953 126.039 78.3265 126.039C79.6577 126.039 80.9667 125.698 82.129 125.049L99.576 115.149L111.431 108.329L128.879 98.429C130.041 97.7795 131.35 97.4385 132.681 97.4385C134.013 97.4385 135.322 97.7795 136.484 98.429L150.129 106.129C151.257 106.776 152.2 107.703 152.865 108.821C153.531 109.938 153.897 111.209 153.929 112.509V128.129C153.945 129.439 153.598 130.728 152.927 131.854C152.257 132.98 151.289 133.899 150.129 134.509L136.484 142.429C135.322 143.078 134.013 143.419 132.681 143.419C131.35 143.419 130.041 143.078 128.879 142.429L115.234 134.729C114.106 134.082 113.163 133.155 112.498 132.037C111.832 130.92 111.466 129.649 111.434 128.349V118.228L99.579 125.048V135.168C99.5634 136.478 99.9099 137.767 100.58 138.893C101.251 140.019 102.219 140.938 103.379 141.548L129.103 156.068C130.265 156.717 131.574 157.058 132.905 157.058C134.237 157.058 135.546 156.717 136.708 156.068L162.432 141.548C163.56 140.901 164.503 139.974 165.168 138.856C165.834 137.739 166.2 136.468 166.232 135.168V105.909C166.248 104.599 165.901 103.31 165.23 102.184C164.56 101.058 163.592 100.139 162.432 99.529L136.487 84.789Z" fill="white"/>
</svg>
