<svg width="906" height="305" viewBox="0 0 906 305" fill="none" xmlns="http://www.w3.org/2000/svg">
<path d="M82.7997 171.166C93.1825 171.166 101.599 162.749 101.599 152.367C101.599 141.984 93.1825 133.567 82.7997 133.567C72.4169 133.567 64 141.984 64 152.367C64 162.749 72.4169 171.166 82.7997 171.166Z" fill="black"/>
<path d="M126.219 168.346C135.044 168.346 142.199 161.192 142.199 152.367C142.199 143.541 135.044 136.387 126.219 136.387C117.394 136.387 110.239 143.541 110.239 152.367C110.239 161.192 117.394 168.346 126.219 168.346Z" fill="black"/>
<path d="M169.642 165.526C176.91 165.526 182.802 159.634 182.802 152.366C182.802 145.098 176.91 139.207 169.642 139.207C162.374 139.207 156.482 145.098 156.482 152.366C156.482 159.634 162.374 165.526 169.642 165.526Z" fill="black"/>
<path d="M213.061 162.707C218.772 162.707 223.401 158.077 223.401 152.367C223.401 146.656 218.772 142.027 213.061 142.027C207.35 142.027 202.721 146.656 202.721 152.367C202.721 158.077 207.35 162.707 213.061 162.707Z" fill="black"/>
<path d="M256.48 159.886C260.633 159.886 264 156.519 264 152.366C264 148.213 260.633 144.846 256.48 144.846C252.327 144.846 248.96 148.213 248.96 152.366C248.96 156.519 252.327 159.886 256.48 159.886Z" fill="black"/>
<path d="M104.509 205.949C113.334 205.949 120.489 198.795 120.489 189.97C120.489 181.144 113.334 173.99 104.509 173.99C95.6837 173.99 88.5293 181.144 88.5293 189.97C88.5293 198.795 95.6837 205.949 104.509 205.949Z" fill="black"/>
<path d="M147.932 203.129C155.2 203.129 161.092 197.237 161.092 189.969C161.092 182.701 155.2 176.81 147.932 176.81C140.664 176.81 134.772 182.701 134.772 189.969C134.772 197.237 140.664 203.129 147.932 203.129Z" fill="black"/>
<path d="M191.352 200.309C197.062 200.309 201.691 195.68 201.691 189.969C201.691 184.259 197.062 179.629 191.352 179.629C185.641 179.629 181.012 184.259 181.012 189.969C181.012 195.68 185.641 200.309 191.352 200.309Z" fill="black"/>
<path d="M234.771 197.49C238.924 197.49 242.291 194.123 242.291 189.97C242.291 185.816 238.924 182.45 234.771 182.45C230.617 182.45 227.251 185.816 227.251 189.97C227.251 194.123 230.617 197.49 234.771 197.49Z" fill="black"/>
<path d="M126.219 240.729C133.487 240.729 139.379 234.837 139.379 227.569C139.379 220.301 133.487 214.409 126.219 214.409C118.951 214.409 113.059 220.301 113.059 227.569C113.059 234.837 118.951 240.729 126.219 240.729Z" fill="black"/>
<path d="M169.642 237.909C175.352 237.909 179.981 233.28 179.981 227.569C179.981 221.859 175.352 217.229 169.642 217.229C163.931 217.229 159.302 221.859 159.302 227.569C159.302 233.28 163.931 237.909 169.642 237.909Z" fill="black"/>
<path d="M213.061 235.089C217.214 235.089 220.581 231.722 220.581 227.569C220.581 223.416 217.214 220.049 213.061 220.049C208.908 220.049 205.541 223.416 205.541 227.569C205.541 231.722 208.908 235.089 213.061 235.089Z" fill="black"/>
<path d="M104.509 130.743C113.334 130.743 120.489 123.588 120.489 114.763C120.489 105.938 113.334 98.7832 104.509 98.7832C95.6837 98.7832 88.5293 105.938 88.5293 114.763C88.5293 123.588 95.6837 130.743 104.509 130.743Z" fill="black"/>
<path d="M147.932 127.923C155.2 127.923 161.092 122.031 161.092 114.763C161.092 107.495 155.2 101.603 147.932 101.603C140.664 101.603 134.772 107.495 134.772 114.763C134.772 122.031 140.664 127.923 147.932 127.923Z" fill="black"/>
<path d="M191.352 125.103C197.062 125.103 201.691 120.474 201.691 114.763C201.691 109.053 197.062 104.423 191.352 104.423C185.641 104.423 181.012 109.053 181.012 114.763C181.012 120.474 185.641 125.103 191.352 125.103Z" fill="black"/>
<path d="M234.771 122.283C238.924 122.283 242.291 118.916 242.291 114.763C242.291 110.61 238.924 107.243 234.771 107.243C230.617 107.243 227.251 110.61 227.251 114.763C227.251 118.916 230.617 122.283 234.771 122.283Z" fill="black"/>
<path d="M126.219 90.3196C133.487 90.3196 139.379 84.4278 139.379 77.1598C139.379 69.8919 133.487 64 126.219 64C118.951 64 113.059 69.8919 113.059 77.1598C113.059 84.4278 118.951 90.3196 126.219 90.3196Z" fill="black"/>
<path d="M169.642 87.4995C175.352 87.4995 179.981 82.8702 179.981 77.1597C179.981 71.4491 175.352 66.8198 169.642 66.8198C163.931 66.8198 159.302 71.4491 159.302 77.1597C159.302 82.8702 163.931 87.4995 169.642 87.4995Z" fill="black"/>
<path d="M213.061 84.6794C217.214 84.6794 220.581 81.3127 220.581 77.1595C220.581 73.0064 217.214 69.6396 213.061 69.6396C208.908 69.6396 205.541 73.0064 205.541 77.1595C205.541 81.3127 208.908 84.6794 213.061 84.6794Z" fill="black"/>
<path d="M378.682 200.637C371.197 200.637 364.773 198.743 359.409 194.955C354.076 191.137 349.97 185.637 347.091 178.455C344.242 171.243 342.818 162.561 342.818 152.41C342.848 142.258 344.288 133.622 347.136 126.501C350.015 119.349 354.121 113.895 359.455 110.137C364.818 106.379 371.227 104.501 378.682 104.501C386.136 104.501 392.545 106.379 397.909 110.137C403.273 113.895 407.379 119.349 410.227 126.501C413.106 133.652 414.545 142.288 414.545 152.41C414.545 162.592 413.106 171.288 410.227 178.501C407.379 185.682 403.273 191.167 397.909 194.955C392.576 198.743 386.167 200.637 378.682 200.637ZM378.682 186.41C384.5 186.41 389.091 183.546 392.455 177.819C395.848 172.061 397.545 163.592 397.545 152.41C397.545 145.016 396.773 138.804 395.227 133.773C393.682 128.743 391.5 124.955 388.682 122.41C385.864 119.834 382.53 118.546 378.682 118.546C372.894 118.546 368.318 121.425 364.955 127.182C361.591 132.91 359.894 141.319 359.864 152.41C359.833 159.834 360.576 166.076 362.091 171.137C363.636 176.198 365.818 180.016 368.636 182.592C371.455 185.137 374.803 186.41 378.682 186.41ZM443.284 129.046L457.375 154.819L471.693 129.046H489.102L468.057 163.955L489.466 198.864H472.148L457.375 173.728L442.739 198.864H425.284L446.557 163.955L425.83 129.046H443.284ZM553.148 131.364C552.723 127.395 550.936 124.304 547.784 122.092C544.663 119.879 540.602 118.773 535.602 118.773C532.087 118.773 529.072 119.304 526.557 120.364C524.042 121.425 522.117 122.864 520.784 124.682C519.451 126.501 518.769 128.576 518.739 130.91C518.739 132.849 519.178 134.531 520.057 135.955C520.966 137.379 522.193 138.592 523.739 139.592C525.284 140.561 526.996 141.379 528.875 142.046C530.754 142.713 532.648 143.273 534.557 143.728L543.284 145.91C546.799 146.728 550.178 147.834 553.42 149.228C556.693 150.622 559.617 152.379 562.193 154.501C564.799 156.622 566.86 159.182 568.375 162.182C569.89 165.182 570.648 168.698 570.648 172.728C570.648 178.182 569.254 182.985 566.466 187.137C563.678 191.258 559.648 194.485 554.375 196.819C549.133 199.122 542.784 200.273 535.33 200.273C528.087 200.273 521.799 199.152 516.466 196.91C511.163 194.667 507.011 191.395 504.011 187.092C501.042 182.788 499.436 177.546 499.193 171.364H515.784C516.027 174.607 517.027 177.304 518.784 179.455C520.542 181.607 522.83 183.213 525.648 184.273C528.496 185.334 531.678 185.864 535.193 185.864C538.86 185.864 542.072 185.319 544.83 184.228C547.617 183.107 549.799 181.561 551.375 179.592C552.951 177.592 553.754 175.258 553.784 172.592C553.754 170.167 553.042 168.167 551.648 166.592C550.254 164.985 548.299 163.652 545.784 162.592C543.299 161.501 540.39 160.531 537.057 159.682L526.466 156.955C518.799 154.985 512.739 152.001 508.284 148.001C503.86 143.97 501.648 138.622 501.648 131.955C501.648 126.47 503.133 121.667 506.102 117.546C509.102 113.425 513.178 110.228 518.33 107.955C523.481 105.652 529.314 104.501 535.83 104.501C542.436 104.501 548.223 105.652 553.193 107.955C558.193 110.228 562.117 113.395 564.966 117.455C567.814 121.485 569.284 126.122 569.375 131.364H553.148ZM584.955 225.046V129.046H601.136V140.592H602.091C602.939 138.895 604.136 137.092 605.682 135.182C607.227 133.243 609.318 131.592 611.955 130.228C614.591 128.834 617.955 128.137 622.045 128.137C627.439 128.137 632.303 129.516 636.636 132.273C641 135.001 644.455 139.046 647 144.41C649.576 149.743 650.864 156.288 650.864 164.046C650.864 171.713 649.606 178.228 647.091 183.592C644.576 188.955 641.152 193.046 636.818 195.864C632.485 198.682 627.576 200.092 622.091 200.092C618.091 200.092 614.773 199.425 612.136 198.092C609.5 196.758 607.379 195.152 605.773 193.273C604.197 191.364 602.97 189.561 602.091 187.864H601.409V225.046H584.955ZM601.091 163.955C601.091 168.47 601.727 172.425 603 175.819C604.303 179.213 606.167 181.864 608.591 183.773C611.045 185.652 614.015 186.592 617.5 186.592C621.136 186.592 624.182 185.622 626.636 183.682C629.091 181.713 630.939 179.031 632.182 175.637C633.455 172.213 634.091 168.319 634.091 163.955C634.091 159.622 633.47 155.773 632.227 152.41C630.985 149.046 629.136 146.41 626.682 144.501C624.227 142.592 621.167 141.637 617.5 141.637C613.985 141.637 611 142.561 608.545 144.41C606.091 146.258 604.227 148.849 602.955 152.182C601.712 155.516 601.091 159.44 601.091 163.955ZM681.409 105.773V198.864H664.955V105.773H681.409ZM698.33 198.864V129.046H714.784V198.864H698.33ZM706.602 119.137C703.996 119.137 701.754 118.273 699.875 116.546C697.996 114.788 697.057 112.682 697.057 110.228C697.057 107.743 697.996 105.637 699.875 103.91C701.754 102.152 703.996 101.273 706.602 101.273C709.239 101.273 711.481 102.152 713.33 103.91C715.208 105.637 716.148 107.743 716.148 110.228C716.148 112.682 715.208 114.788 713.33 116.546C711.481 118.273 709.239 119.137 706.602 119.137ZM766.568 129.046V141.773H726.432V129.046H766.568ZM736.341 112.319H752.795V177.864C752.795 180.076 753.129 181.773 753.795 182.955C754.492 184.107 755.402 184.895 756.523 185.319C757.644 185.743 758.886 185.955 760.25 185.955C761.28 185.955 762.22 185.879 763.068 185.728C763.947 185.576 764.614 185.44 765.068 185.319L767.841 198.182C766.962 198.485 765.705 198.819 764.068 199.182C762.462 199.546 760.492 199.758 758.159 199.819C754.038 199.94 750.326 199.319 747.023 197.955C743.72 196.561 741.098 194.41 739.159 191.501C737.25 188.592 736.311 184.955 736.341 180.592V112.319ZM834.511 147.501L819.511 149.137C819.087 147.622 818.345 146.198 817.284 144.864C816.254 143.531 814.86 142.455 813.102 141.637C811.345 140.819 809.193 140.41 806.648 140.41C803.223 140.41 800.345 141.152 798.011 142.637C795.708 144.122 794.572 146.046 794.602 148.41C794.572 150.44 795.314 152.092 796.83 153.364C798.375 154.637 800.92 155.682 804.466 156.501L816.375 159.046C822.981 160.47 827.89 162.728 831.102 165.819C834.345 168.91 835.981 172.955 836.011 177.955C835.981 182.349 834.693 186.228 832.148 189.592C829.633 192.925 826.133 195.531 821.648 197.41C817.163 199.289 812.011 200.228 806.193 200.228C797.648 200.228 790.769 198.44 785.557 194.864C780.345 191.258 777.239 186.243 776.239 179.819L792.284 178.273C793.011 181.425 794.557 183.804 796.92 185.41C799.284 187.016 802.36 187.819 806.148 187.819C810.057 187.819 813.193 187.016 815.557 185.41C817.951 183.804 819.148 181.819 819.148 179.455C819.148 177.455 818.375 175.804 816.83 174.501C815.314 173.198 812.951 172.198 809.739 171.501L797.83 169.001C791.133 167.607 786.178 165.258 782.966 161.955C779.754 158.622 778.163 154.41 778.193 149.319C778.163 145.016 779.33 141.288 781.693 138.137C784.087 134.955 787.405 132.501 791.648 130.773C795.92 129.016 800.845 128.137 806.42 128.137C814.602 128.137 821.042 129.879 825.739 133.364C830.466 136.849 833.39 141.561 834.511 147.501Z" fill="black"/>
</svg>
