<svg width="256" height="257" viewBox="0 0 256 257" fill="none" xmlns="http://www.w3.org/2000/svg">
<path d="M46.7997 147.166C57.1825 147.166 65.5995 138.749 65.5995 128.367C65.5995 117.984 57.1825 109.567 46.7997 109.567C36.4169 109.567 28 117.984 28 128.367C28 138.749 36.4169 147.166 46.7997 147.166Z" fill="black"/>
<path d="M90.219 144.346C99.0444 144.346 106.199 137.192 106.199 128.366C106.199 119.541 99.0444 112.386 90.219 112.386C81.3936 112.386 74.2393 119.541 74.2393 128.366C74.2393 137.192 81.3936 144.346 90.219 144.346Z" fill="black"/>
<path d="M133.642 141.526C140.91 141.526 146.802 135.634 146.802 128.366C146.802 121.098 140.91 115.207 133.642 115.207C126.374 115.207 120.482 121.098 120.482 128.366C120.482 135.634 126.374 141.526 133.642 141.526Z" fill="black"/>
<path d="M177.061 138.706C182.772 138.706 187.401 134.077 187.401 128.366C187.401 122.656 182.772 118.027 177.061 118.027C171.35 118.027 166.721 122.656 166.721 128.366C166.721 134.077 171.35 138.706 177.061 138.706Z" fill="black"/>
<path d="M220.48 135.886C224.633 135.886 228 132.519 228 128.366C228 124.213 224.633 120.846 220.48 120.846C216.327 120.846 212.96 124.213 212.96 128.366C212.96 132.519 216.327 135.886 220.48 135.886Z" fill="black"/>
<path d="M68.5091 181.949C77.3345 181.949 84.4888 174.795 84.4888 165.97C84.4888 157.144 77.3345 149.99 68.5091 149.99C59.6837 149.99 52.5293 157.144 52.5293 165.97C52.5293 174.795 59.6837 181.949 68.5091 181.949Z" fill="black"/>
<path d="M111.932 179.129C119.2 179.129 125.092 173.237 125.092 165.969C125.092 158.701 119.2 152.81 111.932 152.81C104.664 152.81 98.7725 158.701 98.7725 165.969C98.7725 173.237 104.664 179.129 111.932 179.129Z" fill="black"/>
<path d="M155.352 176.309C161.062 176.309 165.691 171.68 165.691 165.969C165.691 160.259 161.062 155.629 155.352 155.629C149.641 155.629 145.012 160.259 145.012 165.969C145.012 171.68 149.641 176.309 155.352 176.309Z" fill="black"/>
<path d="M198.77 173.49C202.923 173.49 206.29 170.123 206.29 165.97C206.29 161.816 202.923 158.45 198.77 158.45C194.617 158.45 191.25 161.816 191.25 165.97C191.25 170.123 194.617 173.49 198.77 173.49Z" fill="black"/>
<path d="M90.2189 216.729C97.4869 216.729 103.379 210.837 103.379 203.569C103.379 196.301 97.4869 190.409 90.2189 190.409C82.9509 190.409 77.0591 196.301 77.0591 203.569C77.0591 210.837 82.9509 216.729 90.2189 216.729Z" fill="black"/>
<path d="M133.642 213.909C139.352 213.909 143.981 209.28 143.981 203.569C143.981 197.859 139.352 193.229 133.642 193.229C127.931 193.229 123.302 197.859 123.302 203.569C123.302 209.28 127.931 213.909 133.642 213.909Z" fill="black"/>
<path d="M177.061 211.089C181.214 211.089 184.581 207.722 184.581 203.569C184.581 199.416 181.214 196.049 177.061 196.049C172.908 196.049 169.541 199.416 169.541 203.569C169.541 207.722 172.908 211.089 177.061 211.089Z" fill="black"/>
<path d="M68.5091 106.743C77.3345 106.743 84.4888 99.5884 84.4888 90.763C84.4888 81.9376 77.3345 74.7832 68.5091 74.7832C59.6837 74.7832 52.5293 81.9376 52.5293 90.763C52.5293 99.5884 59.6837 106.743 68.5091 106.743Z" fill="black"/>
<path d="M111.932 103.923C119.2 103.923 125.092 98.0308 125.092 90.7628C125.092 83.4949 119.2 77.603 111.932 77.603C104.664 77.603 98.7725 83.4949 98.7725 90.7628C98.7725 98.0308 104.664 103.923 111.932 103.923Z" fill="black"/>
<path d="M155.352 101.103C161.062 101.103 165.691 96.4737 165.691 90.7632C165.691 85.0526 161.062 80.4233 155.352 80.4233C149.641 80.4233 145.012 85.0526 145.012 90.7632C145.012 96.4737 149.641 101.103 155.352 101.103Z" fill="black"/>
<path d="M198.77 98.2827C202.923 98.2827 206.29 94.9159 206.29 90.7628C206.29 86.6097 202.923 83.2429 198.77 83.2429C194.617 83.2429 191.25 86.6097 191.25 90.7628C191.25 94.9159 194.617 98.2827 198.77 98.2827Z" fill="black"/>
<path d="M90.2189 66.3196C97.4869 66.3196 103.379 60.4278 103.379 53.1598C103.379 45.8919 97.4869 40 90.2189 40C82.9509 40 77.0591 45.8919 77.0591 53.1598C77.0591 60.4278 82.9509 66.3196 90.2189 66.3196Z" fill="black"/>
<path d="M133.642 63.4995C139.352 63.4995 143.981 58.8702 143.981 53.1597C143.981 47.4491 139.352 42.8198 133.642 42.8198C127.931 42.8198 123.302 47.4491 123.302 53.1597C123.302 58.8702 127.931 63.4995 133.642 63.4995Z" fill="black"/>
<path d="M177.061 60.6797C181.214 60.6797 184.581 57.3129 184.581 53.1598C184.581 49.0067 181.214 45.6399 177.061 45.6399C172.908 45.6399 169.541 49.0067 169.541 53.1598C169.541 57.3129 172.908 60.6797 177.061 60.6797Z" fill="black"/>
</svg>
