<svg width="400" height="400" viewBox="0 0 400 400" fill="none" xmlns="http://www.w3.org/2000/svg">
<g clip-path="url(#clip0_103_27)">
<path d="M397.467 247.919L206.332 389.245C203.799 391.102 200.084 391.271 197.552 389.414L3.377 252.141C-0.337652 249.439 -1.18189 244.036 1.85737 240.49L192.824 11.5327C195.526 8.15576 200.591 8.15576 203.461 11.5327L398.48 239.139C400.675 241.841 400.338 245.893 397.467 247.919Z" fill="#FFF4FC"/>
<path d="M387.168 243.192L205.488 377.426L204.475 240.659L203.124 25.8848L382.946 238.126L387.168 243.192Z" fill="url(#paint0_linear_103_27)"/>
<path d="M10.8062 246.062L197.214 377.426L192.993 25.8848L10.8062 246.062Z" fill="url(#paint1_linear_103_27)"/>
<path d="M195.694 240.997L12.1569 244.542L10.8062 246.062L197.214 377.425L195.694 240.997Z" fill="url(#paint2_linear_103_27)"/>
<path d="M204.474 240.659L382.946 238.126L387.167 243.192L205.487 377.426L204.474 240.659Z" fill="url(#paint3_linear_103_27)"/>
<path d="M204.474 238.97L382.946 236.438M195.694 239.308L12.157 242.854M194.85 179.367C155.34 149.144 138.624 144.416 132.376 149.481C115.154 163.833 178.978 257.206 153.482 280.676C146.053 287.43 130.688 288.949 101.14 291.82C92.0219 292.664 84.4238 293.002 79.5272 293.002M264.753 238.126L204.137 185.108M164.12 59.1478C163.613 67.4213 163.951 83.7995 172.393 101.866C179.147 116.387 188.434 125.843 194.344 131.077M339.215 276.961C340.734 274.766 359.645 246.906 347.995 220.735C339.384 201.317 318.278 192.369 315.07 191.018C310.848 189.16 310.68 189.667 290.924 183.251C278.936 179.198 272.858 177.341 267.623 175.315C259.519 172.276 243.816 166.197 225.918 154.716C220.008 151.001 212.41 145.598 203.799 138.506" stroke="#98C9C0" stroke-width="2" stroke-miterlimit="10"/>
</g>
<defs>
<linearGradient id="paint0_linear_103_27" x1="203.095" y1="201.663" x2="387.209" y2="201.663" gradientUnits="userSpaceOnUse">
<stop stop-color="#3B8270"/>
<stop offset="1" stop-color="#305C6E"/>
</linearGradient>
<linearGradient id="paint1_linear_103_27" x1="10.8777" y1="201.663" x2="197.256" y2="201.663" gradientUnits="userSpaceOnUse">
<stop stop-color="#4E7F98"/>
<stop offset="1" stop-color="#3BC0B5"/>
</linearGradient>
<linearGradient id="paint2_linear_103_27" x1="10.8777" y1="309.195" x2="197.256" y2="309.195" gradientUnits="userSpaceOnUse">
<stop stop-color="#30435C"/>
<stop offset="1" stop-color="#299AA9"/>
</linearGradient>
<linearGradient id="paint3_linear_103_27" x1="204.514" y1="307.834" x2="387.209" y2="307.834" gradientUnits="userSpaceOnUse">
<stop stop-color="#2E2C29"/>
<stop offset="1" stop-color="#323232"/>
</linearGradient>
<clipPath id="clip0_103_27">
<rect width="400" height="381.764" fill="white" transform="translate(0 9)"/>
</clipPath>
</defs>
</svg>
