<svg width="400" height="400" viewBox="0 0 400 400" fill="none" xmlns="http://www.w3.org/2000/svg">
<g clip-path="url(#clip0_103_6)">
<path d="M76.7124 143.899C69.8251 152.623 65.843 163.643 65.843 175.74C65.6927 204.358 88.9677 227.633 117.753 227.633C129.691 227.633 140.719 223.651 149.601 216.763L76.7124 143.899Z" fill="white"/>
<path d="M334.591 175.581C334.591 204.358 311.316 227.624 282.681 227.474C270.585 227.474 259.557 223.5 250.833 216.605L323.722 143.741C330.609 152.623 334.591 163.643 334.591 175.581Z" fill="white"/>
<path d="M41.3407 78.3821L199.992 236.966L358.634 78.2235C354.652 72.7136 349.902 67.0451 344.851 61.9944C308.561 23.8845 257.111 0 200.142 0C143.173 0 91.8729 23.8845 55.4326 62.0028C50.5322 67.2037 45.782 72.722 41.3407 78.3821Z" fill="white"/>
<path d="M399.983 200.075C399.983 310.448 310.398 400 199.992 400C89.5772 400 -0.00834771 310.598 0 200.075C0 162.107 10.5689 126.752 28.9435 96.4395L44.7134 112.209L61.243 128.739C50.5238 141.604 44.0957 157.983 44.0957 175.89C44.0957 216.463 77.0213 249.372 117.602 249.372C135.676 249.372 151.906 242.944 164.77 232.224L200.142 267.588L235.514 232.224C248.378 242.944 264.766 249.372 282.681 249.372C323.263 249.372 356.188 216.454 356.188 175.89C356.188 157.824 349.76 141.595 339.041 128.739L371.349 96.4395C389.723 126.593 400.292 161.957 399.983 200.075Z" fill="white"/>
</g>
<defs>
<clipPath id="clip0_103_6">
<rect width="400" height="400" fill="white"/>
</clipPath>
</defs>
</svg>
