<svg width="32" height="32" viewBox="0 0 32 32" fill="none" xmlns="http://www.w3.org/2000/svg">
<path d="M29.7993 10.8341C29.0605 9.12284 28.0446 7.55024 26.7054 6.20891C25.3662 4.86759 23.8424 3.85005 22.0876 3.11005C20.3328 2.37004 18.4395 2 16.4538 2C14.5143 2 12.621 2.37004 10.8201 3.1563C9.11145 3.89631 7.54139 4.91385 6.20225 6.25517C4.86303 7.59649 3.84716 9.12284 3.10831 10.8804C2.36946 12.6379 2 14.5343 2 16.4769C2 18.4194 2.36946 20.3158 3.15449 22.1196C3.89334 23.8309 4.90921 25.4035 6.24843 26.7448C7.58757 28.0862 9.11145 29.1037 10.8662 29.8437C12.6672 30.5837 14.5605 31 16.5 31C18.4395 31 20.3328 30.63 22.1338 29.8437C23.8424 29.1037 25.4124 28.0862 26.7516 26.7448C28.0908 25.4035 29.1067 23.8772 29.8455 22.1196C30.5844 20.3158 31 18.4194 31 16.4769C30.9538 14.5343 30.5844 12.6379 29.7993 10.8341ZM11.6513 15.1355C12.2516 12.8229 14.3758 11.1117 16.8695 11.1117H26.9363C27.5828 12.3605 27.9984 13.7018 28.137 15.1355H11.6513ZM28.137 17.8645C27.9522 19.2982 27.5828 20.6395 26.9363 21.8883H16.8695C14.3758 21.8883 12.2516 20.1771 11.6513 17.8645H28.137ZM8.14169 8.15148C10.3583 5.93139 13.3137 4.68264 16.4538 4.68264C19.5939 4.68264 22.5493 5.8852 24.7659 8.15148C24.8121 8.19774 24.9045 8.29024 24.9507 8.3365H16.8695C14.699 8.3365 12.6672 9.16909 11.1433 10.6954C9.94266 11.8979 9.15763 13.4243 8.88054 15.0893H4.81692C5.09394 12.4992 6.24843 10.0941 8.14169 8.15148ZM16.4538 28.2711C13.3137 28.2711 10.3583 27.0686 8.14169 24.8023C6.24843 22.9059 5.09394 20.5008 4.81692 17.8645H8.92672C9.20382 19.5295 9.98885 21.0558 11.1895 22.2584C12.7134 23.7847 14.7452 24.6172 16.9156 24.6172H25.043C24.9968 24.7098 24.9045 24.756 24.8583 24.8023C22.5493 27.0224 19.5939 28.2711 16.4538 28.2711Z" fill="#020617"/>
</svg>
